  0
SECTION
  2
ENTITIES
  0
LINE
  8
0
 62
1
 10
0.000000
 20
0.000000
 30
-92559631349317830736831783200707727132248687965119994463780864.000000
 11
10.000000
 21
9.375000
 31
-92559631349317830736831783200707727132248687965119994463780864.000000
  0
LINE
  8
0
 62
1
 10
10.000000
 20
9.375000
 30
-92559631349317830736831783200707727132248687965119994463780864.000000
 11
20.000000
 21
17.500000
 31
-92559631349317830736831783200707727132248687965119994463780864.000000
  0
LINE
  8
0
 62
1
 10
20.000000
 20
17.500000
 30
-92559631349317830736831783200707727132248687965119994463780864.000000
 11
30.000000
 21
24.375000
 31
-92559631349317830736831783200707727132248687965119994463780864.000000
  0
LINE
  8
0
 62
1
 10
30.000000
 20
24.375000
 30
-92559631349317830736831783200707727132248687965119994463780864.000000
 11
40.000000
 21
30.000000
 31
-92559631349317830736831783200707727132248687965119994463780864.000000
  0
LINE
  8
0
 62
1
 10
40.000000
 20
30.000000
 30
-92559631349317830736831783200707727132248687965119994463780864.000000
 11
50.000000
 21
34.375000
 31
-92559631349317830736831783200707727132248687965119994463780864.000000
  0
LINE
  8
0
 62
1
 10
50.000000
 20
34.375000
 30
-92559631349317830736831783200707727132248687965119994463780864.000000
 11
60.000000
 21
37.500000
 31
-92559631349317830736831783200707727132248687965119994463780864.000000
  0
LINE
  8
0
 62
1
 10
60.000000
 20
37.500000
 30
-92559631349317830736831783200707727132248687965119994463780864.000000
 11
70.000000
 21
39.375000
 31
-92559631349317830736831783200707727132248687965119994463780864.000000
  0
LINE
  8
0
 62
1
 10
70.000000
 20
39.375000
 30
-92559631349317830736831783200707727132248687965119994463780864.000000
 11
80.000000
 21
40.000000
 31
-92559631349317830736831783200707727132248687965119994463780864.000000
  0
LINE
  8
0
 62
1
 10
80.000000
 20
40.000000
 30
-92559631349317830736831783200707727132248687965119994463780864.000000
 11
90.000000
 21
39.375000
 31
-92559631349317830736831783200707727132248687965119994463780864.000000
  0
LINE
  8
0
 62
1
 10
90.000000
 20
39.375000
 30
-92559631349317830736831783200707727132248687965119994463780864.000000
 11
100.000000
 21
37.500000
 31
-92559631349317830736831783200707727132248687965119994463780864.000000
  0
LINE
  8
0
 62
1
 10
100.000000
 20
37.500000
 30
-92559631349317830736831783200707727132248687965119994463780864.000000
 11
110.000000
 21
34.375000
 31
-92559631349317830736831783200707727132248687965119994463780864.000000
  0
LINE
  8
0
 62
1
 10
110.000000
 20
34.375000
 30
-92559631349317830736831783200707727132248687965119994463780864.000000
 11
120.000000
 21
30.000000
 31
-92559631349317830736831783200707727132248687965119994463780864.000000
  0
LINE
  8
0
 62
1
 10
120.000000
 20
30.000000
 30
-92559631349317830736831783200707727132248687965119994463780864.000000
 11
130.000000
 21
24.375000
 31
-92559631349317830736831783200707727132248687965119994463780864.000000
  0
LINE
  8
0
 62
1
 10
130.000000
 20
24.375000
 30
-92559631349317830736831783200707727132248687965119994463780864.000000
 11
140.000000
 21
17.500000
 31
-92559631349317830736831783200707727132248687965119994463780864.000000
  0
LINE
  8
0
 62
1
 10
140.000000
 20
17.500000
 30
-92559631349317830736831783200707727132248687965119994463780864.000000
 11
150.000000
 21
9.375000
 31
-92559631349317830736831783200707727132248687965119994463780864.000000
  0
LINE
  8
0
 62
1
 10
150.000000
 20
9.375000
 30
-92559631349317830736831783200707727132248687965119994463780864.000000
 11
160.000000
 21
0.000000
 31
-92559631349317830736831783200707727132248687965119994463780864.000000
  0
LINE
  8
0
 62
1
 10
0.000000
 20
20.000000
 30
-92559631349317830736831783200707727132248687965119994463780864.000000
 11
10.000000
 21
20.000000
 31
-92559631349317830736831783200707727132248687965119994463780864.000000
  0
LINE
  8
0
 62
1
 10
10.000000
 20
20.000000
 30
-92559631349317830736831783200707727132248687965119994463780864.000000
 11
20.000000
 21
20.000000
 31
-92559631349317830736831783200707727132248687965119994463780864.000000
  0
LINE
  8
0
 62
1
 10
20.000000
 20
20.000000
 30
-92559631349317830736831783200707727132248687965119994463780864.000000
 11
30.000000
 21
20.000000
 31
-92559631349317830736831783200707727132248687965119994463780864.000000
  0
LINE
  8
0
 62
1
 10
30.000000
 20
20.000000
 30
-92559631349317830736831783200707727132248687965119994463780864.000000
 11
40.000000
 21
20.000000
 31
-92559631349317830736831783200707727132248687965119994463780864.000000
  0
LINE
  8
0
 62
1
 10
40.000000
 20
20.000000
 30
-92559631349317830736831783200707727132248687965119994463780864.000000
 11
50.000000
 21
20.000000
 31
-92559631349317830736831783200707727132248687965119994463780864.000000
  0
LINE
  8
0
 62
1
 10
50.000000
 20
20.000000
 30
-92559631349317830736831783200707727132248687965119994463780864.000000
 11
60.000000
 21
20.000000
 31
-92559631349317830736831783200707727132248687965119994463780864.000000
  0
LINE
  8
0
 62
1
 10
60.000000
 20
20.000000
 30
-92559631349317830736831783200707727132248687965119994463780864.000000
 11
70.000000
 21
20.000000
 31
-92559631349317830736831783200707727132248687965119994463780864.000000
  0
LINE
  8
0
 62
1
 10
70.000000
 20
20.000000
 30
-92559631349317830736831783200707727132248687965119994463780864.000000
 11
80.000000
 21
20.000000
 31
-92559631349317830736831783200707727132248687965119994463780864.000000
  0
LINE
  8
0
 62
1
 10
80.000000
 20
20.000000
 30
-92559631349317830736831783200707727132248687965119994463780864.000000
 11
90.000000
 21
20.000000
 31
-92559631349317830736831783200707727132248687965119994463780864.000000
  0
LINE
  8
0
 62
1
 10
90.000000
 20
20.000000
 30
-92559631349317830736831783200707727132248687965119994463780864.000000
 11
100.000000
 21
20.000000
 31
-92559631349317830736831783200707727132248687965119994463780864.000000
  0
LINE
  8
0
 62
1
 10
100.000000
 20
20.000000
 30
-92559631349317830736831783200707727132248687965119994463780864.000000
 11
110.000000
 21
20.000000
 31
-92559631349317830736831783200707727132248687965119994463780864.000000
  0
LINE
  8
0
 62
1
 10
110.000000
 20
20.000000
 30
-92559631349317830736831783200707727132248687965119994463780864.000000
 11
120.000000
 21
20.000000
 31
-92559631349317830736831783200707727132248687965119994463780864.000000
  0
LINE
  8
0
 62
1
 10
120.000000
 20
20.000000
 30
-92559631349317830736831783200707727132248687965119994463780864.000000
 11
130.000000
 21
20.000000
 31
-92559631349317830736831783200707727132248687965119994463780864.000000
  0
LINE
  8
0
 62
1
 10
130.000000
 20
20.000000
 30
-92559631349317830736831783200707727132248687965119994463780864.000000
 11
140.000000
 21
20.000000
 31
-92559631349317830736831783200707727132248687965119994463780864.000000
  0
LINE
  8
0
 62
1
 10
140.000000
 20
20.000000
 30
-92559631349317830736831783200707727132248687965119994463780864.000000
 11
150.000000
 21
20.000000
 31
-92559631349317830736831783200707727132248687965119994463780864.000000
  0
LINE
  8
0
 62
1
 10
150.000000
 20
20.000000
 30
-92559631349317830736831783200707727132248687965119994463780864.000000
 11
160.000000
 21
20.000000
 31
-92559631349317830736831783200707727132248687965119994463780864.000000
  0
LINE
  8
0
 62
1
 10
0.000000
 20
0.000000
 30
-92559631349317830736831783200707727132248687965119994463780864.000000
 11
0.000000
 21
20.000000
 31
-92559631349317830736831783200707727132248687965119994463780864.000000
  0
LINE
  8
0
 62
1
 10
10.000000
 20
9.375000
 30
-92559631349317830736831783200707727132248687965119994463780864.000000
 11
10.000000
 21
20.000000
 31
-92559631349317830736831783200707727132248687965119994463780864.000000
  0
LINE
  8
0
 62
1
 10
20.000000
 20
17.500000
 30
-92559631349317830736831783200707727132248687965119994463780864.000000
 11
20.000000
 21
20.000000
 31
-92559631349317830736831783200707727132248687965119994463780864.000000
  0
LINE
  8
0
 62
1
 10
30.000000
 20
24.375000
 30
-92559631349317830736831783200707727132248687965119994463780864.000000
 11
30.000000
 21
20.000000
 31
-92559631349317830736831783200707727132248687965119994463780864.000000
  0
LINE
  8
0
 62
1
 10
40.000000
 20
30.000000
 30
-92559631349317830736831783200707727132248687965119994463780864.000000
 11
40.000000
 21
20.000000
 31
-92559631349317830736831783200707727132248687965119994463780864.000000
  0
LINE
  8
0
 62
1
 10
50.000000
 20
34.375000
 30
-92559631349317830736831783200707727132248687965119994463780864.000000
 11
50.000000
 21
20.000000
 31
-92559631349317830736831783200707727132248687965119994463780864.000000
  0
LINE
  8
0
 62
1
 10
60.000000
 20
37.500000
 30
-92559631349317830736831783200707727132248687965119994463780864.000000
 11
60.000000
 21
20.000000
 31
-92559631349317830736831783200707727132248687965119994463780864.000000
  0
LINE
  8
0
 62
1
 10
70.000000
 20
39.375000
 30
-92559631349317830736831783200707727132248687965119994463780864.000000
 11
70.000000
 21
20.000000
 31
-92559631349317830736831783200707727132248687965119994463780864.000000
  0
LINE
  8
0
 62
1
 10
80.000000
 20
40.000000
 30
-92559631349317830736831783200707727132248687965119994463780864.000000
 11
80.000000
 21
20.000000
 31
-92559631349317830736831783200707727132248687965119994463780864.000000
  0
LINE
  8
0
 62
1
 10
90.000000
 20
39.375000
 30
-92559631349317830736831783200707727132248687965119994463780864.000000
 11
90.000000
 21
20.000000
 31
-92559631349317830736831783200707727132248687965119994463780864.000000
  0
LINE
  8
0
 62
1
 10
100.000000
 20
37.500000
 30
-92559631349317830736831783200707727132248687965119994463780864.000000
 11
100.000000
 21
20.000000
 31
-92559631349317830736831783200707727132248687965119994463780864.000000
  0
LINE
  8
0
 62
1
 10
110.000000
 20
34.375000
 30
-92559631349317830736831783200707727132248687965119994463780864.000000
 11
110.000000
 21
20.000000
 31
-92559631349317830736831783200707727132248687965119994463780864.000000
  0
LINE
  8
0
 62
1
 10
120.000000
 20
30.000000
 30
-92559631349317830736831783200707727132248687965119994463780864.000000
 11
120.000000
 21
20.000000
 31
-92559631349317830736831783200707727132248687965119994463780864.000000
  0
LINE
  8
0
 62
1
 10
130.000000
 20
24.375000
 30
-92559631349317830736831783200707727132248687965119994463780864.000000
 11
130.000000
 21
20.000000
 31
-92559631349317830736831783200707727132248687965119994463780864.000000
  0
LINE
  8
0
 62
1
 10
140.000000
 20
17.500000
 30
-92559631349317830736831783200707727132248687965119994463780864.000000
 11
140.000000
 21
20.000000
 31
-92559631349317830736831783200707727132248687965119994463780864.000000
  0
LINE
  8
0
 62
1
 10
150.000000
 20
9.375000
 30
-92559631349317830736831783200707727132248687965119994463780864.000000
 11
150.000000
 21
20.000000
 31
-92559631349317830736831783200707727132248687965119994463780864.000000
  0
LINE
  8
0
 62
1
 10
160.000000
 20
0.000000
 30
-92559631349317830736831783200707727132248687965119994463780864.000000
 11
160.000000
 21
20.000000
 31
-92559631349317830736831783200707727132248687965119994463780864.000000
  0
ENDSEC
  0
EOF
