  0
SECTION
  2
ENTITIES
  0
CIRCLE
  8
0
 62
4
 10
-10.000000
 20
50.000000
 30
0.000000
 40
7.000000
  0
CIRCLE
  8
0
 62
4
 10
-45.000000
 20
110.621778
 30
0.000000
 40
7.000000
  0
CIRCLE
  8
0
 62
4
 10
-115.000000
 20
110.621778
 30
0.000000
 40
7.000000
  0
CIRCLE
  8
0
 62
4
 10
-150.000000
 20
50.000000
 30
0.000000
 40
7.000000
  0
CIRCLE
  8
0
 62
4
 10
-115.000000
 20
-10.621778
 30
0.000000
 40
7.000000
  0
CIRCLE
  8
0
 62
4
 10
-45.000000
 20
-10.621778
 30
0.000000
 40
7.000000
  0
LINE
  8
0
 62
4
 10
-10.000000
 20
50.000000
 30
0.000000
 11
-45.000000
 21
110.621778
 31
0.000000
  0
LINE
  8
0
 62
4
 10
-45.000000
 20
110.621778
 30
0.000000
 11
-115.000000
 21
110.621778
 31
0.000000
  0
LINE
  8
0
 62
4
 10
-115.000000
 20
110.621778
 30
0.000000
 11
-150.000000
 21
50.000000
 31
0.000000
  0
LINE
  8
0
 62
4
 10
-150.000000
 20
50.000000
 30
0.000000
 11
-115.000000
 21
-10.621778
 31
0.000000
  0
LINE
  8
0
 62
4
 10
-115.000000
 20
-10.621778
 30
0.000000
 11
-45.000000
 21
-10.621778
 31
0.000000
  0
LINE
  8
0
 62
4
 10
-45.000000
 20
-10.621778
 30
0.000000
 11
-10.000000
 21
50.000000
 31
0.000000
  0
CIRCLE
  8
0
 62
6
 10
140.000000
 20
-60.000000
 30
0.000000
 40
4.000000
  0
CIRCLE
  8
0
 62
6
 10
120.000000
 20
-25.358984
 30
0.000000
 40
4.000000
  0
CIRCLE
  8
0
 62
6
 10
80.000000
 20
-25.358984
 30
0.000000
 40
4.000000
  0
CIRCLE
  8
0
 62
6
 10
60.000000
 20
-60.000000
 30
0.000000
 40
4.000000
  0
CIRCLE
  8
0
 62
6
 10
80.000000
 20
-94.641016
 30
0.000000
 40
4.000000
  0
CIRCLE
  8
0
 62
6
 10
120.000000
 20
-94.641016
 30
0.000000
 40
4.000000
  0
LINE
  8
0
 62
6
 10
140.000000
 20
-60.000000
 30
0.000000
 11
120.000000
 21
-25.358984
 31
0.000000
  0
LINE
  8
0
 62
6
 10
120.000000
 20
-25.358984
 30
0.000000
 11
80.000000
 21
-25.358984
 31
0.000000
  0
LINE
  8
0
 62
6
 10
80.000000
 20
-25.358984
 30
0.000000
 11
60.000000
 21
-60.000000
 31
0.000000
  0
LINE
  8
0
 62
6
 10
60.000000
 20
-60.000000
 30
0.000000
 11
80.000000
 21
-94.641016
 31
0.000000
  0
LINE
  8
0
 62
6
 10
80.000000
 20
-94.641016
 30
0.000000
 11
120.000000
 21
-94.641016
 31
0.000000
  0
LINE
  8
0
 62
6
 10
120.000000
 20
-94.641016
 30
0.000000
 11
140.000000
 21
-60.000000
 31
0.000000
  0
CIRCLE
  8
0
 62
5
 10
65.000000
 20
-140.000000
 30
0.000000
 40
10.000000
  0
CIRCLE
  8
0
 62
5
 10
37.500000
 20
-92.368603
 30
0.000000
 40
10.000000
  0
CIRCLE
  8
0
 62
5
 10
-17.500000
 20
-92.368603
 30
0.000000
 40
10.000000
  0
CIRCLE
  8
0
 62
5
 10
-45.000000
 20
-140.000000
 30
0.000000
 40
10.000000
  0
CIRCLE
  8
0
 62
5
 10
-17.500000
 20
-187.631397
 30
0.000000
 40
10.000000
  0
CIRCLE
  8
0
 62
5
 10
37.500000
 20
-187.631397
 30
0.000000
 40
10.000000
  0
LINE
  8
0
 62
5
 10
65.000000
 20
-140.000000
 30
0.000000
 11
37.500000
 21
-92.368603
 31
0.000000
  0
LINE
  8
0
 62
5
 10
37.500000
 20
-92.368603
 30
0.000000
 11
-17.500000
 21
-92.368603
 31
0.000000
  0
LINE
  8
0
 62
5
 10
-17.500000
 20
-92.368603
 30
0.000000
 11
-45.000000
 21
-140.000000
 31
0.000000
  0
LINE
  8
0
 62
5
 10
-45.000000
 20
-140.000000
 30
0.000000
 11
-17.500000
 21
-187.631397
 31
0.000000
  0
LINE
  8
0
 62
5
 10
-17.500000
 20
-187.631397
 30
0.000000
 11
37.500000
 21
-187.631397
 31
0.000000
  0
LINE
  8
0
 62
5
 10
37.500000
 20
-187.631397
 30
0.000000
 11
65.000000
 21
-140.000000
 31
0.000000
  0
ENDSEC
  0
EOF
